<svg width="261" height="20" viewBox="0 0 261 20" fill="none" xmlns="http://www.w3.org/2000/svg">
<g clip-path="url(#clip0_1_290)">
<g clip-path="url(#clip1_1_290)">
<path fill-rule="evenodd" clip-rule="evenodd" d="M260.05 15.771V17.371H246.184V2.51403H259.439V4.11403H247.762V9.02703H254.046V10.634H247.762V15.772H260.046L260.05 15.771ZM230.31 15.907C232.459 15.9279 234.544 15.1783 236.187 13.794L237.387 14.883C235.43 16.5916 232.913 17.5206 230.315 17.493H230.273C225.315 17.493 221.252 14.102 221.217 9.93503V9.90803C221.252 5.74103 225.317 2.35003 230.317 2.35003C232.915 2.32121 235.433 3.24996 237.389 4.95903L236.189 6.04803C234.535 4.65958 232.438 3.90963 230.278 3.93403C226.227 3.93403 222.907 6.62003 222.878 9.92203C222.905 13.223 226.225 15.908 230.31 15.908V15.907ZM209.895 12.313H202.095L199.495 17.373H197.626L205.262 2.46903H206.715L214.329 17.374H212.491L209.895 12.313ZM205.99 4.67703L202.909 10.706H209.062L205.99 4.67703ZM178.308 2.46703H179.982V15.767H190.501V17.367H178.308V2.46903V2.46703ZM165.308 11.139V11.15H157.328V17.374H155.671V2.38903H165.308V2.39403C166.472 2.40333 167.587 2.86514 168.416 3.68172C169.245 4.49829 169.724 5.60553 169.751 6.76903C169.725 7.93242 169.246 9.03962 168.416 9.85583C167.587 10.672 166.472 11.133 165.308 11.141V11.139ZM165.172 3.96703H157.322L157.328 9.57303H165.172C165.932 9.58836 166.667 9.30253 167.217 8.77794C167.766 8.25335 168.086 7.5326 168.106 6.77303C168.088 6.01224 167.769 5.28965 167.219 4.76366C166.669 4.23767 165.933 3.9512 165.172 3.96703ZM140.882 11.608L144.364 17.613H139.899L136.705 12.044H132.297V17.613H128.449V2.40003H139.09C139.808 2.37604 140.522 2.49765 141.191 2.75752C141.86 3.01739 142.469 3.41013 142.982 3.91203C143.426 4.33607 143.779 4.84659 144.018 5.4121C144.257 5.9776 144.378 6.58609 144.372 7.20003C144.399 7.88443 144.257 8.56486 143.959 9.18145C143.66 9.79804 143.215 10.3319 142.662 10.736C142.121 11.1226 141.52 11.4172 140.882 11.608ZM140.182 6.29403C140.065 6.15819 139.917 6.05281 139.75 5.98697C139.584 5.92112 139.404 5.89678 139.225 5.91603H132.298V8.63203H139.172C139.355 8.64371 139.538 8.61044 139.705 8.53513C139.871 8.45982 140.017 8.34476 140.129 8.20003C140.36 7.9338 140.483 7.59114 140.474 7.23903C140.491 6.89909 140.387 6.56421 140.181 6.29303L140.182 6.29403ZM105.174 2.40003H119.528V5.81303H108.945V8.11303H114.627V11.549H108.945V14.193H120.078V17.6H105.178V2.40003H105.174ZM90.0573 17.6H81.2393V2.40003H90.0043C91.0461 2.38698 92.0776 2.60703 93.0234 3.04409C93.9691 3.48115 94.8052 4.12415 95.4703 4.92603C96.7568 6.38593 97.4518 8.2735 97.4193 10.219C97.4072 12.1107 96.6447 13.9202 95.2993 15.25C94.6404 15.9888 93.8328 16.5801 92.9294 16.9851C92.0261 17.3901 91.0473 17.5996 90.0573 17.6ZM92.2963 7.19103C91.9733 6.78416 91.5606 6.45734 91.0906 6.23602C90.6206 6.01471 90.1058 5.90486 89.5863 5.91503H85.0623V14.221H90.0003C90.5003 14.2087 90.9892 14.0711 91.4222 13.8207C91.8551 13.5703 92.2183 13.2153 92.4783 12.788C93.0697 12.0594 93.409 11.1587 93.4453 10.221C93.4481 9.10408 93.039 8.0253 92.2963 7.19103ZM60.6073 8.32903L60.5233 17.613H56.6943V2.36103H59.9993L60.2393 2.63603L68.5153 11.87V2.36103H72.3353V17.612H68.9533L60.6073 8.32903ZM39.5423 18.009C34.3423 18.009 30.1233 14.428 30.1233 10.009C30.1233 5.59003 34.3413 2.00903 39.5423 2.00903C44.7433 2.00903 48.9603 5.59203 48.9603 10.009C48.9603 14.426 44.7443 18.008 39.5433 18.008L39.5423 18.009ZM39.5423 5.48103C36.5983 5.48103 34.2103 7.50903 34.2103 10.01C34.2103 12.511 36.5983 14.54 39.5423 14.54C42.4863 14.54 44.8753 12.511 44.8753 10.01C44.8753 7.50903 42.4873 5.48003 39.5433 5.48003L39.5423 5.48103ZM15.9023 17.608L12.4403 8.53003L9.04634 17.606H5.91834L0.0743408 2.36103H4.12434L7.46234 11.286L10.8793 2.36203H14.1053L17.4673 11.3L20.8273 2.35703H24.8333L19.0333 17.6L15.9023 17.608Z" fill="#131313"/>
</g>
</g>
<defs>
<clipPath id="clip0_1_290">
<rect width="260" height="20" fill="white" transform="translate(0.0623779)"/>
</clipPath>
<clipPath id="clip1_1_290">
<rect width="260" height="20" fill="white" transform="translate(0.0623779)"/>
</clipPath>
</defs>
</svg>
